<?xml version="1.0" standalone="no"?>
<!DOCTYPE svg PUBLIC "-//W3C//DTD SVG 20010904//EN"
 "http://www.w3.org/TR/2001/REC-SVG-20010904/DTD/svg10.dtd">
<svg version="1.0" xmlns="http://www.w3.org/2000/svg"
 width="1024.000000pt" height="1024.000000pt" viewBox="0 0 1024.000000 1024.000000"
 preserveAspectRatio="xMidYMid meet">

<g transform="translate(0.000000,1024.000000) scale(0.100000,-0.100000)"
fill="#000000" stroke="none">
<path d="M6820 9179 c-703 -81 -1317 -518 -1621 -1154 -100 -209 -159 -414
-189 -658 -17 -136 -7 -459 18 -592 11 -55 18 -102 16 -104 -6 -6 -300 19
-459 40 -1029 134 -2006 543 -2826 1181 -282 219 -617 537 -834 791 -126 149
-109 150 -187 -12 -91 -190 -160 -429 -188 -651 -15 -122 -12 -388 5 -510 60
-421 232 -790 517 -1111 71 -80 244 -233 318 -282 27 -17 50 -35 50 -40 0 -9
-114 0 -240 19 -198 31 -399 94 -581 183 l-102 49 7 -124 c17 -301 86 -566
217 -826 199 -395 533 -723 935 -919 120 -59 355 -142 433 -155 49 -8 53 -19
9 -28 -291 -63 -568 -73 -841 -29 l-38 6 27 -74 c64 -181 210 -438 334 -589
363 -444 883 -713 1460 -756 l94 -7 -34 -29 c-66 -55 -249 -179 -381 -259
-534 -320 -1102 -507 -1739 -573 -163 -17 -538 -20 -714 -6 -76 6 -140 9 -142
7 -3 -2 33 -27 78 -54 788 -480 1664 -765 2577 -838 248 -19 695 -20 961 0
1584 118 2952 815 3956 2015 890 1064 1406 2498 1393 3870 l-2 205 117 91
c239 187 435 376 629 607 98 116 270 347 264 353 -2 2 -59 -19 -128 -46 -143
-58 -315 -115 -481 -159 -173 -47 -501 -108 -528 -99 -7 2 14 21 46 42 347
228 639 589 781 962 52 136 53 129 -9 93 -176 -105 -496 -248 -738 -331 -111
-37 -427 -123 -481 -129 -21 -3 -43 12 -110 75 -338 315 -751 506 -1201 555
-112 13 -339 12 -448 0z"/>
</g>
</svg>
